<svg xmlns="http://www.w3.org/2000/svg" width="42.222" height="57.296" viewBox="0 0 42.222 57.296">
  <g id="Group_218" data-name="Group 218" transform="translate(-1175.818 -373.852)">
    <path id="Icon_awesome-map-marker-alt" data-name="Icon awesome-map-marker-alt" d="M18.942,56.14C2.965,32.568,0,30.149,0,21.486A21.3,21.3,0,0,1,21.111,0,21.3,21.3,0,0,1,42.222,21.486c0,8.663-2.965,11.082-18.942,34.654a2.614,2.614,0,0,1-4.339,0Zm2.17-25.7a8.954,8.954,0,1,0-8.8-8.953A8.875,8.875,0,0,0,21.111,30.439Z" transform="translate(1175.818 373.852)" fill="#488487"/>
    <path id="Path_247" data-name="Path 247" d="M15.5,0A15.5,15.5,0,1,1,0,15.5,15.5,15.5,0,0,1,15.5,0Z" transform="translate(1181.429 380)" fill="#024b58"/>
  </g>
</svg>